<svg xmlns="http://www.w3.org/2000/svg" viewBox="0 0 140.21 50.86"><defs><style>.cls-1{fill:#262626;}</style></defs><title>Asset 2</title><g id="Layer_2" data-name="Layer 2"><g id="Layer_1-2" data-name="Layer 1"><path class="cls-1" d="M32.74,28a15.2,15.2,0,0,0-5.49-4.77,67.13,67.13,0,0,0-6.49-2.89,39.51,39.51,0,0,1-5.49-2.53C13.76,16.92,13,16,13,14.85A3.16,3.16,0,0,1,14.55,12a6.77,6.77,0,0,1,3.64-1,13.14,13.14,0,0,1,4.08.7L34,5.58,32.39,4.22a18.2,18.2,0,0,0-5.5-2.75A25.94,25.94,0,0,0,18.33.08,18.47,18.47,0,0,0,6,4.23,13.4,13.4,0,0,0,1.09,15a12.3,12.3,0,0,0,1.65,6.35,13,13,0,0,0,4.05,4.42,48,48,0,0,0,5.27,3,56.24,56.24,0,0,0,5.28,2.31,17.41,17.41,0,0,1,4.07,2.09,3.22,3.22,0,0,1,1.66,2.49,3.27,3.27,0,0,1-1.52,3,6.89,6.89,0,0,1-3.63.92,13.87,13.87,0,0,1-5.79-1.41l-.89-.42L0,43.6l.74.64A11.07,11.07,0,0,0,3,46a38.32,38.32,0,0,0,3.6,2,23.15,23.15,0,0,0,5,1.74,26.91,26.91,0,0,0,6.19.71q7.93,0,12.57-4.4A14.19,14.19,0,0,0,35,35.4,12.31,12.31,0,0,0,32.74,28Z"/><polygon class="cls-1" points="54.05 41.88 65.98 35.62 65.98 10.22 80.63 10.22 80.63 0 39.1 0 39.1 10.22 54.05 10.22 54.05 41.88"/><path class="cls-1" d="M109.2,13.21l-4.84,15.45a70.52,70.52,0,0,0-1.87,7.85h-.13a66.18,66.18,0,0,0-1.83-7.85l-2.92-9.42-10.3,5.35,8.9,26.08h12.42l15.86-45.4Z"/><path class="cls-1" d="M140.21,45a5.86,5.86,0,1,1-5.86-5.86A5.86,5.86,0,0,1,140.21,45Z"/></g></g></svg>