<svg xmlns="http://www.w3.org/2000/svg" viewBox="0 0 149.21 50.88"><defs><style>.cls-1{fill:#fff;}</style></defs><title>7Asset 1</title><g id="Layer_2" data-name="Layer 2"><g id="Layer_1-2" data-name="Layer 1"><path class="cls-1" d="M32.74,28a15.25,15.25,0,0,0-5.49-4.77,66.87,66.87,0,0,0-6.49-2.89,40,40,0,0,1-5.49-2.53C13.76,16.92,13,16,13,14.85A3.16,3.16,0,0,1,14.55,12a6.72,6.72,0,0,1,3.64-1,13.16,13.16,0,0,1,4.08.7L34,5.58,32.39,4.22a18.12,18.12,0,0,0-5.5-2.75A25.7,25.7,0,0,0,18.33.08,18.49,18.49,0,0,0,6,4.23,13.41,13.41,0,0,0,1.09,15a12.3,12.3,0,0,0,1.65,6.35,13,13,0,0,0,4.05,4.42,46.94,46.94,0,0,0,5.27,3,55.45,55.45,0,0,0,5.28,2.31,17.37,17.37,0,0,1,4.07,2.09,3.21,3.21,0,0,1,1.66,2.49,3.26,3.26,0,0,1-1.52,3,6.89,6.89,0,0,1-3.63.92,13.87,13.87,0,0,1-5.79-1.41l-.89-.42L0,43.6l.74.64A10.94,10.94,0,0,0,3,46a39.86,39.86,0,0,0,3.6,2,23.06,23.06,0,0,0,5,1.74,26.88,26.88,0,0,0,6.19.71q7.93,0,12.57-4.4A14.19,14.19,0,0,0,35,35.4,12.33,12.33,0,0,0,32.74,28Z"/><polygon class="cls-1" points="58.05 41.88 69.98 35.62 69.84 10.22 84.63 10.22 84.63 0 43.1 0 43.1 10.22 57.92 10.22 58.05 41.88"/><path class="cls-1" d="M120.36,9.51l-6,19.15a70.33,70.33,0,0,0-1.87,7.85h-.13a67.12,67.12,0,0,0-1.83-7.85l-3.72-12L96.45,22.08l9.76,28.59h12.42l17.22-49.3Z"/><path class="cls-1" d="M149.21,45a5.86,5.86,0,1,1-5.86-5.86A5.86,5.86,0,0,1,149.21,45Z"/></g></g></svg>